# xmcd CD database file
#
# Track frame offsets:
#	183
#	12933
#	25795
#	40308
#	50408
#	64908
#	88158
#	107133
#	119658
#	132558
#	143358
#	156408
#
# Disc length: 2282 seconds
#
# Revision: 0
# Processed by: cddbd v1.5.2PL0 Copyright (c) Steve Scherf et al.
# Submitted via: CDex 1.51
#
DISCID=a808e80c
DTITLE=JJ Kale - 5
DYEAR=1979
DGENRE=Blues
TTITLE0=Thirteen Days
TTITLE1=Boilin' Pot
TTITLE2=I'll Make Love to You Anytime
TTITLE3=Don't Cry Sister
TTITLE4=Too Much for Me
TTITLE5=Sensitive Kind
TTITLE6=Friday
TTITLE7=Lou-Easy-Ann
TTITLE8=Let's Go To Tahiti
TTITLE9=Katy Kool, Lady
TTITLE10=Fate Of A Foll
TTITLE11=Mona
EXTD=YEAR: 1979
EXTT0=
EXTT1=
EXTT2=
EXTT3=
EXTT4=
EXTT5=
EXTT6=
EXTT7=
EXTT8=
EXTT9=
EXTT10=
EXTT11=
PLAYORDER=
